<svg xmlns="http://www.w3.org/2000/svg" viewBox="0 0 145.49 145.49"><g data-name="Layer 2"><path d="M66.3 145.19a45.51 45.51 0 0 1-6.3-.9l12.75-71.54L54 142.94a41.53 41.53 0 0 1-6.15-1.8l24.9-68.39L42 138.59c-2-.9-3.75-1.8-5.55-2.85l36.3-63-41.85 59.55c-1.65-1.2-3.3-2.55-4.95-3.89l46.8-55.65-51.45 51.44a61.65 61.65 0 0 1-4.3-4.64l55.8-46.8-59.6 41.85c-1.35-1.8-2.4-3.6-3.6-5.55l63.15-36.3-66 30.75c-.9-2-1.65-3.75-2.4-5.85l68.4-24.9L2.4 91.5l-1.35-6 71.7-12.75L.15 79.2C0 77.1 0 75 0 72.75h72.75l-72.6-6.3c.15-2.25.6-4.2.9-6.3l71.7 12.6L2.4 54c.6-2.1 1.2-4 1.95-6.15l68.4 24.9L6.75 42c.9-1.8 1.8-3.75 2.85-5.55l63.15 36.3-59.55-41.7c1.2-1.8 2.4-3.45 3.75-5.1l55.8 46.8L21.3 21.3a61.81 61.81 0 0 1 4.7-4.2l46.8 55.65L30.9 13.2c1.8-1.2 3.6-2.4 5.55-3.45l36.3 63L42 6.9c2-.9 3.75-1.8 5.85-2.55l24.9 68.4L54 2.55a43.13 43.13 0 0 1 6-1.35l12.75 71.55L66.3.3c2.1-.15 4.2-.3 6.45-.3v72.75L79.05.3a42.48 42.48 0 0 1 6.3.9l-12.6 71.55L91.5 2.55a47.59 47.59 0 0 1 6.15 1.8l-24.9 68.4L103.5 6.9c2 .9 3.75 1.8 5.7 2.85l-36.45 63 41.7-59.55a63.38 63.38 0 0 1 5.09 3.9L72.75 72.75l51.44-51.45c1.5 1.5 2.85 3.15 4.21 4.65l-55.65 46.8 59.54-41.7c1.2 1.8 2.4 3.6 3.45 5.4l-63 36.3L138.59 42c.9 2 1.8 3.9 2.55 5.85l-68.39 24.9L142.94 54a45.15 45.15 0 0 1 1.35 6.15l-71.54 12.6 72.44-6.3c.15 2.1.3 4.2.3 6.3H72.75l72.44 6.45a45.51 45.51 0 0 1-.9 6.3L72.75 72.75l70.19 18.75a41.53 41.53 0 0 1-1.8 6.15l-68.39-24.9 65.84 30.75c-.9 2-1.8 3.9-2.85 5.7l-63-36.45 59.54 41.85c-1.2 1.65-2.55 3.3-3.89 5L72.75 72.75l51.44 51.44c-1.5 1.5-3.15 2.85-4.65 4.21L72.75 72.75l41.7 59.54c-1.8 1.2-3.6 2.4-5.4 3.45l-36.3-63 30.75 65.84c-2 .9-3.9 1.8-5.85 2.55l-24.9-68.38 18.75 70.19a45.15 45.15 0 0 1-6.15 1.35l-12.6-71.54 6.3 72.44c-2.1.15-4.2.3-6.3.3V72.75z" fill="#231f20" data-name="Layer 1"/></g></svg>