<svg xmlns="http://www.w3.org/2000/svg" viewBox="0 0 145.49 145.49"><g data-name="Layer 2"><path d="M74.55 93.6v51.89H71V93.6l-9 51.14-3.6-.6 9-50.84-17.9 48.44-3.3-1.2L63.9 92 38 136.65l-3.15-1.8 25.8-44.7-33.2 39.59-2.85-2.39 33.15-39.6-39.6 33.15-2.4-2.85 39.6-33.15-44.7 25.8-1.8-3.15 44.85-25.8L5 99.45 3.75 96l48.9-17.85-51.3 9-.6-3.6 51.15-9H0V71h51.9L.75 62l.6-3.6 51.3 9-48.9-17.9L5 46.05 53.7 63.9 8.85 38l1.8-3.15 44.7 25.8-39.6-33.2 2.4-2.85 39.6 33.3L24.6 18.15l2.85-2.4 33.15 39.6-25.8-44.7 3.2-1.8L63.75 53.7 46.05 5l3.45-1.2 18 49.2-9.15-51.65L62 .75l9 51.15V0h3.6v51.9l9-51.15 3.6.6L78 53 96 3.75 99.45 5l-17.7 48.7 25.8-44.85 3.15 1.8-25.8 44.7 33.15-39.6 2.85 2.4L87.75 57.9l39.6-33.3 2.39 2.85L90.15 60.6l44.69-25.8 1.8 3.15L91.8 63.9l48.74-17.85 1.2 3.45-48.89 17.85 51.29-9 .6 3.6L93.6 71h51.89v3.6H93.6l51.14 9-.6 3.6-51.29-9L141.74 96l-1.2 3.45-48.74-17.7 44.84 25.8-1.8 3.15-44.69-25.8 39.59 33.15-2.39 2.85-39.6-33.15 33.15 39.6-2.85 2.39L84.9 90.15l25.8 44.7-3.15 1.8L81.6 92l17.7 48.59-3.3 1.2L78.15 93.3l9 50.84-3.6.6z" fill="#00000" data-name="Layer 1"/></g></svg>
