<svg width="136" height="36" viewBox="0 0 136 36" fill="none" xmlns="http://www.w3.org/2000/svg">
<path d="M0.979673 16.0473C1.00788 15.1409 1.43623 14.2277 2.30894 13.3117C3.18446 12.3928 4.48465 11.4966 6.1911 10.6417C9.60336 8.93238 14.5436 7.43543 20.6707 6.23395C32.9168 3.83257 49.7934 2.63224 68.3928 3.21108C86.9922 3.78993 103.762 6.03737 115.835 9.19561C121.875 10.7758 126.713 12.577 130.012 14.4953C131.662 15.4546 132.904 16.4299 133.721 17.4014C134.535 18.3699 134.906 19.308 134.877 20.2144C134.849 21.1207 134.421 22.034 133.548 22.9499C132.673 23.8689 131.372 24.765 129.666 25.6199C126.254 27.3293 121.313 28.8262 115.186 30.0277C102.94 32.4291 86.0636 33.6294 67.4642 33.0505C48.8648 32.4717 32.0954 30.2243 20.0224 27.066C13.9819 25.4859 9.14425 23.6846 5.84488 21.7664C4.19489 20.8071 2.95295 19.8318 2.13626 18.8602C1.3222 17.8917 0.951467 16.9536 0.979673 16.0473Z" stroke="black"/>
</svg>
