<svg width="176" height="174" viewBox="0 0 176 174" fill="none" xmlns="http://www.w3.org/2000/svg">
<g clip-path="url(#clip0)">
<path fill-rule="evenodd" clip-rule="evenodd" d="M104.438 26.3274C89.6018 15.5301 75.6853 14.8999 57.8401 18.897C54.4672 19.6525 51.2771 16.5908 50.7148 12.0586C50.1526 7.52629 52.4311 3.23972 55.8041 2.48423C75.1039 -1.83864 92.1495 -1.53879 110.335 11.6964C111.333 12.4226 112.514 13.2617 113.846 14.2087C123.134 20.8102 139.796 32.6524 153.308 48.0196C161.05 56.8238 168.219 67.2773 172.351 79.1956C176.589 91.4193 177.593 105.149 172.903 119.432C168.319 133.393 159.457 144.257 148.884 152.391C138.273 160.554 125.505 166.313 112.325 169.819C86.1879 176.77 56.9168 175.225 37.8066 163.895C18.4629 152.426 6.41615 130.934 1.95762 108.704C-2.45456 86.7049 0.422629 62.7818 12.312 47.637C23.7476 33.0702 39.4085 28.2104 54.965 30.68C70.5158 33.1486 86.4164 42.9576 99.1856 58.6237C111.161 73.3153 117.389 85.8051 117.574 97.3463C117.777 109.979 110.887 117.4 105.412 121.817C101.854 124.689 96.447 126.809 90.8097 128.125C84.9993 129.481 78.2536 130.14 71.6533 129.574C65.1226 129.014 58.2976 127.218 52.6269 123.223C46.8111 119.126 41.9191 112.45 40.427 102.456C39.1804 94.1065 39.7881 86.6178 42.5352 80.5922C45.2825 74.5664 49.6075 71.2371 53.9662 69.7148C62.3157 66.799 72.4246 69.8444 78.9452 75.9777C81.7466 78.6126 82.4279 83.8002 80.4669 87.5644C78.506 91.3286 74.6454 92.244 71.844 89.6091C68.0454 86.0361 61.6356 84.2285 57.0812 85.819C54.988 86.55 53.7649 87.8138 53.0945 89.2842C52.4239 90.755 51.7445 93.6658 52.5682 99.1827C53.1462 103.054 54.9665 106.084 58.3769 108.487C61.9322 110.992 66.8473 112.489 72.4421 112.969C77.9673 113.443 83.7326 112.889 88.6907 111.731C93.8218 110.534 97.4405 108.841 99.037 107.553C103.872 103.651 105.242 100.672 105.194 97.7057C105.129 93.6477 102.595 85.3385 90.8361 70.9115C79.871 57.4589 66.3489 49.2421 53.5122 47.2043C40.6812 45.1674 28.9897 49.3204 20.8314 59.7126C13.1269 69.5266 10.3309 86.5081 13.9141 104.374C17.451 122.009 27.0684 139.341 42.8055 148.672C58.776 158.14 85.2316 160.063 109.921 153.496C122.154 150.243 133.573 144.996 142.732 137.951C151.929 130.876 158.418 122.328 161.573 112.716C164.623 103.427 164.079 94.7399 161.126 86.2222C158.067 77.399 152.401 68.7865 145.308 60.7203C132.924 46.6355 117.596 35.7173 108.194 29.0202C106.803 28.029 105.541 27.1303 104.438 26.3274Z" fill="black"/>
</g>
<defs>
<clipPath id="clip0">
<rect width="176" height="174" fill="white"/>
</clipPath>
</defs>
</svg>
