<svg width="1097" height="247" viewBox="0 0 1097 247" fill="none" xmlns="http://www.w3.org/2000/svg">
<g clip-path="url(#clip0)">
<path d="M8.084 105.345C6.392 110.797 5.64 116.249 5.64 121.513C5.64 140.501 16.92 157.045 45.872 157.045C78.396 157.045 108.476 139.373 108.476 111.173C108.476 76.2052 42.112 85.9812 42.112 58.9091C42.112 47.4412 56.588 29.2052 81.968 29.2052C101.896 29.2052 107.16 40.2972 107.16 51.5772C107.16 56.6532 106.22 61.7292 104.904 65.8651H118.064C119.756 60.2251 120.696 54.5851 120.696 49.3212C120.696 31.8372 110.356 17.9252 85.54 17.9252C59.784 17.9252 28.388 34.0932 28.388 62.6692C28.388 97.4492 94.94 85.7932 94.94 113.617C94.94 123.581 84.412 145.765 49.444 145.765C25.192 145.765 18.988 132.417 18.988 119.633C18.988 114.557 20.116 109.481 21.244 105.345H8.084Z" fill="black"/>
<path d="M172.366 139.845L185.986 143.494L202.773 80.8443L242.724 91.549C273.643 99.6393 285.286 85.2422 289.471 69.6251C293.607 54.1896 290.819 35.5366 259.997 27.0831L206.427 12.729L172.366 139.845ZM217.127 27.274L257.622 38.1248C275.419 42.8932 280.068 53.8706 276.759 66.219C273.45 78.5674 263.984 85.5679 246.188 80.7994L205.692 69.9486L217.127 27.274Z" fill="black"/>
<path d="M397.5 75.7258L331.7 189.695L343.911 196.745L409.711 82.7758L397.5 75.7258Z" fill="black"/>
<path d="M675.532 118.761L662.772 115.542L604.246 212.264L594.414 98.2965L584.388 95.7672L513.187 213.528L525.765 216.701L584.29 119.979L594.123 233.946L604.149 236.476L675.532 118.761Z" fill="black"/>
<path d="M889.63 113.281L876.688 110.892L857.067 217.197L788.872 94.6838L778.704 92.807L754.817 222.221L767.758 224.61L787.38 118.305L855.575 240.818L865.743 242.695L889.63 113.281Z" fill="black"/>
<path d="M1098.5 62.6851H1081.58L1023.3 118.145L1000.18 62.6851H984.2L1013.53 129.801L993.788 194.285H1007.89L1027.82 129.613L1098.5 62.6851Z" fill="black"/>
</g>
<defs>
<clipPath id="clip0">
<rect width="1097" height="247" fill="white"/>
</clipPath>
</defs>
</svg>
