<svg width="1040" height="182" viewBox="0 0 1040 182" fill="none" xmlns="http://www.w3.org/2000/svg">
<path d="M1.63562 66.197C0.503268 69.8416 0 73.4862 0 77.0051C0 89.6984 7.54902 100.758 26.9248 100.758C48.6912 100.758 68.8219 88.9443 68.8219 70.0929C68.8219 46.7173 24.4085 53.2524 24.4085 35.1551C24.4085 27.4889 34.0964 15.2984 51.0817 15.2984C64.4183 15.2984 67.9412 22.7132 67.9412 30.2538C67.9412 33.647 67.3121 37.0402 66.4314 39.8051H75.2386C76.3709 36.0348 77 32.2646 77 28.7456C77 17.0578 70.0801 7.75781 53.4722 7.75781C36.2353 7.75781 15.2239 18.5659 15.2239 37.6686C15.2239 60.9186 59.7631 53.1267 59.7631 71.7267C59.7631 78.3875 52.7173 93.2173 29.3154 93.2173C13.085 93.2173 8.93301 84.2943 8.93301 75.7484C8.93301 72.3551 9.68791 68.9619 10.4428 66.197H1.63562Z" fill="black"/>
<path d="M174.074 85.1217L183.194 87.5654L194.435 45.6126L221.187 52.7809C241.892 58.1985 249.689 48.5576 252.491 38.0998C255.261 27.7636 253.394 15.2728 232.755 9.61206L196.882 0L174.074 85.1217ZM204.047 9.73989L231.164 17.006C243.081 20.1991 246.195 27.55 243.979 35.819C241.763 44.0879 235.424 48.7757 223.507 45.5825L196.39 38.3165L204.047 9.73989Z" fill="black"/>
<path d="M387.564 61.6797L343.502 137.998L351.679 142.719L395.741 66.4006L387.564 61.6797Z" fill="black"/>
<path d="M624.084 95.6282L615.539 93.4726L576.348 158.241L569.764 81.9245L563.05 80.2307L515.371 159.088L523.794 161.213L562.985 96.4438L569.569 172.761L576.283 174.455L624.084 95.6282Z" fill="black"/>
<path d="M838.638 93.4603L829.972 91.8607L816.833 163.046L771.166 81.0068L764.357 79.75L748.362 166.411L757.028 168.01L770.167 96.8246L815.834 178.864L822.643 180.121L838.638 93.4603Z" fill="black"/>
<path d="M1040 50.7578H1028.6L989.342 87.8435L973.765 50.7578H963L982.757 95.6378L969.459 138.758H978.957L992.382 95.5121L1040 50.7578Z" fill="black"/>
</svg>
