<svg width="267" height="32" viewBox="0 0 267 32" fill="none" xmlns="http://www.w3.org/2000/svg">
<path d="M28.12 15.84C28.12 20.032 30.936 24.64 37.88 24.64C43.96 24.64 46.84 21.152 46.84 17.44C46.84 8.704 31.32 13.952 31.32 7.52C31.32 5.696 33.304 2.88 37.368 2.88C42.872 2.88 43.8 6.752 43.8 9.12H46.04C46.04 4.928 43.832 0.959999 37.368 0.959999C32.28 0.959999 29.24 4.128 29.24 7.84C29.24 16.576 44.76 11.008 44.76 17.76C44.76 19.584 43.224 22.72 37.88 22.72C31.736 22.72 30.36 18.208 30.36 15.84H28.12ZM50.9938 24H53.3938V12.96H60.4338C65.8738 12.928 67.1538 10.048 67.1538 7.296C67.1538 4.576 65.8738 1.632 60.4338 1.6H50.9938V24ZM53.3938 3.52H60.5298C63.6658 3.52 64.9138 5.12 64.9138 7.296C64.9138 9.472 63.6658 11.04 60.5298 11.04H53.3938V3.52ZM70.9938 1.6V24H73.3938V1.6H70.9938ZM97.3813 1.6H95.1413V20L79.9413 1.6H78.1813V24H80.4213V5.6L95.6213 24H97.3813V1.6ZM121.381 1.6H119.141V20L103.941 1.6H102.181V24H104.421V5.6L119.621 24H121.381V1.6ZM145.157 1.6H142.437L134.789 11.04L127.301 1.6H124.421L133.573 13.024V24H135.973V12.992L145.157 1.6ZM167.413 1.6H165.173V20L149.973 1.6H148.213V24H150.453V5.6L165.653 24H167.413V1.6ZM172.213 1.6V24H174.613V1.6H172.213ZM200.744 13.44H190.504V15.36H198.024C197.384 19.36 194.888 22.4 189.8 22.4C184.328 22.4 180.84 18.24 180.84 12.8C180.84 7.36 184.2 3.2 189.64 3.2C194.408 3.2 197.352 5.632 197.992 9.6H200.424C199.72 4.224 195.624 0.959999 189.64 0.959999C182.984 0.959999 178.44 5.952 178.44 12.8C178.44 19.648 183.112 24.64 189.8 24.64C194.952 24.64 197.832 21.728 198.76 17.472L199.144 24H200.744V13.44ZM223.453 1.6H221.053V11.36H207.613V1.6H205.213V24H207.613V13.28H221.053V24H223.453V1.6ZM244.884 1.6H226.804V3.52H234.644V24H237.044V3.52H244.884V1.6ZM246.339 15.84C246.339 20.032 249.155 24.64 256.099 24.64C262.179 24.64 265.059 21.152 265.059 17.44C265.059 8.704 249.539 13.952 249.539 7.52C249.539 5.696 251.523 2.88 255.587 2.88C261.091 2.88 262.019 6.752 262.019 9.12H264.259C264.259 4.928 262.051 0.959999 255.587 0.959999C250.499 0.959999 247.459 4.128 247.459 7.84C247.459 16.576 262.979 11.008 262.979 17.76C262.979 19.584 261.443 22.72 256.099 22.72C249.955 22.72 248.579 18.208 248.579 15.84H246.339Z" fill="black"/>
<circle cx="9" cy="12" r="9" fill="black"/>
</svg>
