<svg width="539" height="321" viewBox="0 0 539 321" fill="none" xmlns="http://www.w3.org/2000/svg">
<g style="mix-blend-mode:multiply" clip-path="url(#clip0)">
<path d="M20.6953 245.009C20.958 247.719 21.6342 250.256 22.6064 252.571C26.1131 260.922 34.1293 266.115 46.8622 260.768C61.166 254.761 71.1312 241.434 65.9232 229.032C59.4652 213.653 32.0843 230.209 27.0846 218.303C24.9667 213.259 27.9653 202.566 39.1272 197.878C47.8914 194.198 52.2549 198.104 54.3381 203.065C55.2756 205.297 55.7996 207.703 55.9847 209.765L61.7723 207.335C61.4749 204.542 60.8467 201.888 59.8745 199.573C56.6455 191.884 49.5288 187.675 38.6149 192.258C27.2876 197.015 16.4659 209.923 21.7433 222.491C28.1666 237.787 55.2829 220.37 60.4215 232.606C62.2617 236.989 61.7286 248.689 46.3499 255.147C35.6841 259.626 30.4905 254.902 28.1295 249.279C27.1921 247.047 26.7507 244.606 26.4829 242.579L20.6953 245.009Z" fill="black"/>
<path d="M99.3808 229.824L106.045 228.913L101.857 198.26L121.404 195.59C136.496 193.438 138.958 184.956 137.914 177.315C136.882 169.762 132.212 162.074 117.095 164.048L90.8844 167.629L99.3808 229.824ZM98.2764 172.049L118.09 169.343C126.797 168.153 130.869 172.122 131.695 178.164C132.52 184.206 129.65 189.033 120.942 190.222L101.129 192.929L98.2764 172.049Z" fill="black"/>
<path d="M186.617 160.047L178.727 222.322L185.399 223.167L193.29 160.892L186.617 160.047Z" fill="black"/>
<path d="M316.77 127.626L310.564 128.567L302.688 181.914L277.316 133.608L272.439 134.347L262.874 199.287L268.992 198.359L276.868 145.013L302.24 193.319L307.116 192.58L316.77 127.626Z" fill="black"/>
<path d="M409.902 85.6799L403.769 87.0194L414.772 137.395L362.155 96.1091L357.336 97.1616L370.731 158.488L376.864 157.149L365.861 106.773L418.479 148.059L423.297 147.007L409.902 85.6799Z" fill="black"/>
<path d="M492.375 24.8669L484.934 27.9917L469.545 63.1459L449.133 43.0256L442.105 45.9768L467.399 70.0775L470.626 102.083L476.827 99.4787L473.648 67.3561L492.375 24.8669Z" fill="black"/>
</g>
<defs>
<clipPath id="clip0">
<rect width="531.243" height="124.973" fill="white" transform="translate(0 205.686) rotate(-22.779)"/>
</clipPath>
</defs>
</svg>
